<?xml version="1.0" encoding="utf-8"?>
<!-- Generator: Adobe Illustrator 16.0.0, SVG Export Plug-In . SVG Version: 6.00 Build 0)  -->
<!DOCTYPE svg PUBLIC "-//W3C//DTD SVG 1.1//EN" "http://www.w3.org/Graphics/SVG/1.1/DTD/svg11.dtd">
<svg version="1.1" id="Layer_1" xmlns="http://www.w3.org/2000/svg" xmlns:xlink="http://www.w3.org/1999/xlink" x="0px" y="0px"
	 width="300px" height="96px" viewBox="0 0 300 96" enable-background="new 0 0 300 96" xml:space="preserve">
<g>
	<g>
		<path fill="#BA2401" d="M106.047,41.129c0,2.474-1.237,3.71-3.711,3.71H86.12V4.232h16.112c2.405,0,3.608,1.245,3.608,3.736
			v10.456c0,1.385-0.434,2.457-1.298,3.218c-0.122,0.104-1.177,0.77-3.165,1.998c2.058,1.263,3.147,1.954,3.269,2.075
			c0.933,0.813,1.401,1.929,1.401,3.348V41.129z M99.793,19.178V9.344h-7.602v11.91h4.671L99.793,19.178z M99.949,39.728V28.155
			l-2.983-1.972h-4.774v13.544H99.949z"/>
		<path fill="#BA2401" d="M116.996,44.839h-6.072V4.232h6.072V44.839z"/>
		<path fill="#BA2401" d="M137.936,44.839h-15.958V4.232h6.072v35.184h9.886V44.839z"/>
		<path fill="#BA2401" d="M157.5,44.839h-15.958V4.232h6.072v35.184h9.886V44.839z"/>
		<path fill="#BA2401" d="M181.526,4.466l-5.372,16.969c-0.656,1.679-1.548,4.507-2.671,8.484v14.92h-6.099v-14.92
			c-0.276-1.349-0.675-2.775-1.192-4.281c-0.918-2.577-1.411-3.978-1.479-4.203l-5.345-16.969c-0.018-0.017-0.018-0.095,0-0.233
			h6.253l4.852,17.644L175.3,4.232h6.227C181.526,4.354,181.526,4.431,181.526,4.466z"/>
		<path fill="#BA2401" d="M190.063,4.232l-1.168,12.714h-3.606l-1.167-12.714H190.063z"/>
		<path fill="#BA2401" d="M213.881,41.129c0,2.474-1.229,3.71-3.685,3.71h-12.221c-2.439,0-3.658-1.236-3.658-3.71V31.45h6.07v8.277
			h7.423v-7.966l-12.17-11.52c-0.883-0.848-1.323-1.93-1.323-3.244V7.969c0-2.491,1.219-3.736,3.658-3.736h12.221
			c2.456,0,3.685,1.229,3.685,3.685v9.081h-6.07V9.344h-7.423v7.343l12.17,11.469c0.883,0.83,1.323,1.929,1.323,3.295V41.129z"/>
	</g>
	<g>
		<linearGradient id="SVGID_1_" gradientUnits="userSpaceOnUse" x1="14.0786" y1="49.3345" x2="14.0786" y2="90.6688">
			<stop  offset="0" style="stop-color:#E6C34E"/>
			<stop  offset="1" style="stop-color:#CCA33D"/>
		</linearGradient>
		<path fill="url(#SVGID_1_)" d="M23.795,56.532h-6.694v35.235h-6.045V56.532H4.361V51.16h19.434V56.532z"/>
		<linearGradient id="SVGID_2_" gradientUnits="userSpaceOnUse" x1="37.2754" y1="49.3345" x2="37.2754" y2="90.6688">
			<stop  offset="0" style="stop-color:#E6C34E"/>
			<stop  offset="1" style="stop-color:#CCA33D"/>
		</linearGradient>
		<path fill="url(#SVGID_2_)" d="M47.667,91.768h-6.331l-6.694-18.863v-3.659h5.967V56.376h-7.654v35.392h-6.071V51.16h16.112
			c2.439,0,3.659,1.246,3.659,3.737V69.66c0,1.713-0.58,2.82-1.738,3.321c-0.623,0.26-1.938,0.39-3.943,0.39L47.667,91.768z"/>
		<linearGradient id="SVGID_3_" gradientUnits="userSpaceOnUse" x1="60.9253" y1="49.3345" x2="60.9253" y2="90.6688">
			<stop  offset="0" style="stop-color:#E6C34E"/>
			<stop  offset="1" style="stop-color:#CCA33D"/>
		</linearGradient>
		<path fill="url(#SVGID_3_)" d="M71.953,91.768h-6.02l-1.22-7.706h-7.602l-1.22,7.706h-5.994v-0.105l7.862-40.553h6.383
			L71.953,91.768z M63.857,78.846l-2.958-18.318l-2.983,18.318H63.857z"/>
		<linearGradient id="SVGID_4_" gradientUnits="userSpaceOnUse" x1="85.6392" y1="49.3345" x2="85.6392" y2="90.6688">
			<stop  offset="0" style="stop-color:#E6C34E"/>
			<stop  offset="1" style="stop-color:#CCA33D"/>
		</linearGradient>
		<path fill="url(#SVGID_4_)" d="M95.927,91.768h-5.319l-9.73-25.559c0.259,1.246,0.389,2.224,0.389,2.933v22.626h-5.916V51.16
			h5.319l9.73,25.039c-0.26-1.245-0.39-2.223-0.39-2.933V51.16h5.916V91.768z"/>
		<linearGradient id="SVGID_5_" gradientUnits="userSpaceOnUse" x1="110.4839" y1="49.3345" x2="110.4839" y2="90.6688">
			<stop  offset="0" style="stop-color:#E6C34E"/>
			<stop  offset="1" style="stop-color:#CCA33D"/>
		</linearGradient>
		<path fill="url(#SVGID_5_)" d="M120.266,88.056c0,2.474-1.228,3.712-3.685,3.712H104.36c-2.439,0-3.659-1.238-3.659-3.712v-9.678
			h6.071v8.277h7.421v-7.966l-12.169-11.52c-0.883-0.848-1.324-1.929-1.324-3.243v-9.029c0-2.491,1.22-3.737,3.659-3.737h12.221
			c2.457,0,3.685,1.229,3.685,3.685v9.082h-6.071v-7.654h-7.421v7.343l12.169,11.468c0.882,0.831,1.323,1.93,1.323,3.295V88.056z"/>
		<linearGradient id="SVGID_6_" gradientUnits="userSpaceOnUse" x1="137.3643" y1="49.3345" x2="137.3643" y2="90.6688">
			<stop  offset="0" style="stop-color:#E6C34E"/>
			<stop  offset="1" style="stop-color:#CCA33D"/>
		</linearGradient>
		<path fill="url(#SVGID_6_)" d="M149.637,91.768h-5.838V71.736c0-1.056,0.12-2.525,0.363-4.411l-5.241,20.73h-3.087l-5.268-20.73
			c0.243,1.92,0.364,3.391,0.364,4.411v20.031h-5.838V51.16h5.734l6.383,22.444c0.069,0.242,0.121,0.856,0.156,1.843
			c0-0.433,0.052-1.048,0.155-1.843l6.383-22.444h5.734V91.768z"/>
		<linearGradient id="SVGID_7_" gradientUnits="userSpaceOnUse" x1="157.6279" y1="49.3345" x2="157.6279" y2="90.6688">
			<stop  offset="0" style="stop-color:#E6C34E"/>
			<stop  offset="1" style="stop-color:#CCA33D"/>
		</linearGradient>
		<path fill="url(#SVGID_7_)" d="M160.663,91.768h-6.07V51.16h6.07V91.768z"/>
		<linearGradient id="SVGID_8_" gradientUnits="userSpaceOnUse" x1="175.3232" y1="49.3345" x2="175.3232" y2="90.6688">
			<stop  offset="0" style="stop-color:#E6C34E"/>
			<stop  offset="1" style="stop-color:#CCA33D"/>
		</linearGradient>
		<path fill="url(#SVGID_8_)" d="M185.105,88.056c0,2.474-1.228,3.712-3.684,3.712h-12.221c-2.439,0-3.66-1.238-3.66-3.712v-9.678
			h6.072v8.277h7.421v-7.966l-12.17-11.52c-0.881-0.848-1.323-1.929-1.323-3.243v-9.029c0-2.491,1.221-3.737,3.66-3.737h12.221
			c2.456,0,3.684,1.229,3.684,3.685v9.082h-6.071v-7.654h-7.421v7.343l12.169,11.468c0.882,0.831,1.323,1.93,1.323,3.295V88.056z"/>
		<linearGradient id="SVGID_9_" gradientUnits="userSpaceOnUse" x1="199.6104" y1="49.3345" x2="199.6104" y2="90.6688">
			<stop  offset="0" style="stop-color:#E6C34E"/>
			<stop  offset="1" style="stop-color:#CCA33D"/>
		</linearGradient>
		<path fill="url(#SVGID_9_)" d="M209.393,88.056c0,2.474-1.229,3.712-3.685,3.712h-12.221c-2.438,0-3.659-1.238-3.659-3.712v-9.678
			h6.072v8.277h7.42v-7.966l-12.169-11.52c-0.882-0.848-1.323-1.929-1.323-3.243v-9.029c0-2.491,1.221-3.737,3.659-3.737h12.221
			c2.456,0,3.685,1.229,3.685,3.685v9.082h-6.072v-7.654h-7.42v7.343l12.169,11.468c0.882,0.831,1.323,1.93,1.323,3.295V88.056z"/>
		<linearGradient id="SVGID_10_" gradientUnits="userSpaceOnUse" x1="217.3574" y1="49.3345" x2="217.3574" y2="90.6688">
			<stop  offset="0" style="stop-color:#E6C34E"/>
			<stop  offset="1" style="stop-color:#CCA33D"/>
		</linearGradient>
		<path fill="url(#SVGID_10_)" d="M220.393,91.768h-6.07V51.16h6.07V91.768z"/>
		<linearGradient id="SVGID_11_" gradientUnits="userSpaceOnUse" x1="235.6113" y1="49.3345" x2="235.6113" y2="90.6688">
			<stop  offset="0" style="stop-color:#E6C34E"/>
			<stop  offset="1" style="stop-color:#CCA33D"/>
		</linearGradient>
		<path fill="url(#SVGID_11_)" d="M245.847,88.056c0,2.474-1.229,3.712-3.685,3.712h-13.181c-2.404,0-3.606-1.238-3.606-3.712
			V54.897c0-2.491,1.202-3.737,3.606-3.737h13.181c2.456,0,3.685,1.246,3.685,3.737V88.056z M239.776,86.552V56.376h-8.33v30.176
			H239.776z"/>
		<linearGradient id="SVGID_12_" gradientUnits="userSpaceOnUse" x1="261.0127" y1="49.3345" x2="261.0127" y2="90.6688">
			<stop  offset="0" style="stop-color:#E6C34E"/>
			<stop  offset="1" style="stop-color:#CCA33D"/>
		</linearGradient>
		<path fill="url(#SVGID_12_)" d="M271.301,91.768h-5.318l-9.73-25.559c0.26,1.246,0.389,2.224,0.389,2.933v22.626h-5.916V51.16
			h5.32l9.729,25.039c-0.261-1.245-0.39-2.223-0.39-2.933V51.16h5.916V91.768z"/>
		<linearGradient id="SVGID_13_" gradientUnits="userSpaceOnUse" x1="285.8574" y1="49.3345" x2="285.8574" y2="90.6688">
			<stop  offset="0" style="stop-color:#E6C34E"/>
			<stop  offset="1" style="stop-color:#CCA33D"/>
		</linearGradient>
		<path fill="url(#SVGID_13_)" d="M295.639,88.056c0,2.474-1.229,3.712-3.685,3.712h-12.221c-2.438,0-3.657-1.238-3.657-3.712
			v-9.678h6.07v8.277h7.422v-7.966l-12.169-11.52c-0.884-0.848-1.323-1.929-1.323-3.243v-9.029c0-2.491,1.219-3.737,3.657-3.737
			h12.221c2.456,0,3.685,1.229,3.685,3.685v9.082h-6.07v-7.654h-7.422v7.343l12.169,11.468c0.883,0.831,1.323,1.93,1.323,3.295
			V88.056z"/>
	</g>
</g>
</svg>
